<?xml version="1.0" encoding="UTF-8" standalone="no"?>
<svg width="456" height="456" viewBox="0 0 456 456" version="1.1" xmlns="http://www.w3.org/2000/svg">
    <rect x="0" y="0" width="456" height="456" fill="#1E3A8A" />
    <!-- Hotel Building -->
    <rect x="120" y="100" width="216" height="280" fill="#FFFFFF" rx="8" />
    <!-- Windows -->
    <rect x="140" y="130" width="30" height="30" fill="#60A5FA" rx="4" />
    <rect x="190" y="130" width="30" height="30" fill="#60A5FA" rx="4" />
    <rect x="240" y="130" width="30" height="30" fill="#60A5FA" rx="4" />
    <rect x="286" y="130" width="30" height="30" fill="#60A5FA" rx="4" />
    
    <rect x="140" y="180" width="30" height="30" fill="#60A5FA" rx="4" />
    <rect x="190" y="180" width="30" height="30" fill="#60A5FA" rx="4" />
    <rect x="240" y="180" width="30" height="30" fill="#60A5FA" rx="4" />
    <rect x="286" y="180" width="30" height="30" fill="#60A5FA" rx="4" />
    
    <rect x="140" y="230" width="30" height="30" fill="#60A5FA" rx="4" />
    <rect x="190" y="230" width="30" height="30" fill="#60A5FA" rx="4" />
    <rect x="240" y="230" width="30" height="30" fill="#60A5FA" rx="4" />
    <rect x="286" y="230" width="30" height="30" fill="#60A5FA" rx="4" />
    
    <!-- Door -->
    <rect x="205" y="300" width="46" height="80" fill="#8B5CF6" rx="6" />
    <!-- Door Handle -->
    <circle cx="240" cy="340" r="3" fill="#FCD34D" />
    
    <!-- Title Text -->
    <text x="228" y="420" text-anchor="middle" fill="#FFFFFF" font-family="Arial, sans-serif" font-size="24" font-weight="bold">J</text>
</svg>
